<?xml version="1.0" encoding="utf-8"?>
<!-- Generator: Adobe Illustrator 26.0.2, SVG Export Plug-In . SVG Version: 6.00 Build 0)  -->
<svg version="1.1" id="Layer_1" xmlns="http://www.w3.org/2000/svg" xmlns:xlink="http://www.w3.org/1999/xlink" x="0px" y="0px"
	 viewBox="0 0 72 72" style="enable-background:new 0 0 72 72;" xml:space="preserve">
<style type="text/css">
	.st0{fill:#FFFFFF;}
	.st1{fill:url(#SVGID_1_);}
	.st2{fill:url(#SVGID_00000012454921508215755830000016407031180881272743_);}
	.st3{fill:url(#SVGID_00000057842972605434123690000015225801085464948415_);}
</style>
<g>
	<rect class="st0" width="72" height="72"/>
</g>
<g>
	<linearGradient id="SVGID_1_" gradientUnits="userSpaceOnUse" x1="27.6596" y1="37.9356" x2="44.1711" y2="37.9356">
		<stop  offset="0" style="stop-color:#FF931E"/>
		<stop  offset="1" style="stop-color:#FBB03B"/>
	</linearGradient>
	<path class="st1" d="M44,17.65V56.3h2.74V27.18c0,0,6.95,9.96,7.9,15.22c0,0,0.95,5.05-2.85,8.95c-0.64,0.66-1.4,1.28-1.87,2.1
		c-0.48,0.85-0.59,1.89-0.55,2.85v4.17c0,0,0.27,1.79-1.21,1.79s-7.43,0-7.43,0V12.49l-1.16-1.73l-1.73,2.53V62.1l-14.27,0.15
		c-0.4,0-0.81-0.17-1.03-0.51c-0.11-0.16-0.19-0.35-0.19-0.59c0-0.79,0-1.28,0-1.28H19.5v1.14c0.19,3.05,2.14,3.94,3.45,4.03
		c2.47,0.16,26.09,0,26.09,0s3-0.27,3.05-3.21l0.05-6.15c0-0.3,0.12-0.59,0.34-0.79c0.78-0.77,2.7-2.82,3.61-4.94
		c1.16-2.69,2.74-5.63,0.11-12C53.57,31.57,47.85,23.19,44,17.65z"/>
	
		<linearGradient id="SVGID_00000141441121961124044960000018403815284470972331_" gradientUnits="userSpaceOnUse" x1="27.6596" y1="37.855" x2="44.1711" y2="37.855">
		<stop  offset="0" style="stop-color:#FF931E"/>
		<stop  offset="1" style="stop-color:#FBB03B"/>
	</linearGradient>
	<polygon style="fill:url(#SVGID_00000141441121961124044960000018403815284470972331_);" points="33.82,19.35 30.99,23.71 
		30.99,56.36 33.82,56.36 	"/>
	
		<linearGradient id="SVGID_00000147196032122039968360000005787705163129498277_" gradientUnits="userSpaceOnUse" x1="27.6596" y1="31.633" x2="44.1711" y2="31.633">
		<stop  offset="0" style="stop-color:#FF931E"/>
		<stop  offset="1" style="stop-color:#FBB03B"/>
	</linearGradient>
	<path style="fill:url(#SVGID_00000147196032122039968360000005787705163129498277_);" d="M37.47,7.86L36.6,7.22
		c-0.78-0.56-1.88-0.38-2.42,0.43l-9.2,13.85v31.69h-3.37c0,0-4.85-3-4.64-9.9c0,0,0.9-6.48,5.43-12.05v-5.43
		c0,0-7.32,10.37-7.9,15.75c-0.56,5.19,0.35,9.78,5.86,14.31c0.39,0.32,0.87,0.5,1.38,0.5h6.03l0.05-34.07L37.47,7.86z"/>
</g>
</svg>
