<?xml version="1.0" encoding="utf-8"?>
<!-- Generator: Adobe Illustrator 26.0.2, SVG Export Plug-In . SVG Version: 6.00 Build 0)  -->
<svg version="1.1" id="Layer_1" xmlns="http://www.w3.org/2000/svg" xmlns:xlink="http://www.w3.org/1999/xlink" x="0px" y="0px"
	 viewBox="0 0 72 72" style="enable-background:new 0 0 72 72;" xml:space="preserve">
<style type="text/css">
	.st0{fill:#FFFFFF;}
	.st1{fill:url(#SVGID_1_);}
	.st2{fill:url(#SVGID_00000026161388711356875160000003023908401085167778_);}
	.st3{fill:url(#SVGID_00000018955860405421201160000014165028875012893352_);}
</style>
<rect class="st0" width="72" height="72"/>
<g>
	<g>
		
			<linearGradient id="SVGID_1_" gradientUnits="userSpaceOnUse" x1="6.89" y1="24.3356" x2="65.11" y2="24.3356" gradientTransform="matrix(1 0 0 -1 0 73.2756)">
			<stop  offset="0" style="stop-color:#FF931E"/>
			<stop  offset="1" style="stop-color:#FBB03B"/>
		</linearGradient>
		<path class="st1" d="M61.88,35.47c0.29,0,0.53,0.24,0.53,0.53v25.88c0,0.29-0.24,0.53-0.53,0.53H10.12
			c-0.29,0-0.53-0.24-0.53-0.53V36c0-0.29,0.24-0.53,0.53-0.53H61.88 M61.88,32.77H10.12c-1.78,0-3.23,1.44-3.23,3.23v25.88
			c0,1.78,1.45,3.23,3.23,3.23h51.76c1.78,0,3.23-1.44,3.23-3.23V36C65.11,34.22,63.66,32.77,61.88,32.77L61.88,32.77z"/>
	</g>
	<g>
		
			<linearGradient id="SVGID_00000042011436935701119450000013871989934857026967_" gradientUnits="userSpaceOnUse" x1="6.9" y1="44.1606" x2="56.67" y2="44.1606" gradientTransform="matrix(1 0 0 -1 0 73.2756)">
			<stop  offset="0" style="stop-color:#FF931E"/>
			<stop  offset="1" style="stop-color:#FBB03B"/>
		</linearGradient>
		<path style="fill:url(#SVGID_00000042011436935701119450000013871989934857026967_);" d="M53.44,25.6c0.25,0,0.52,0.21,0.52,0.53
			v6.5H20.3l32.95-7l0.03-0.01l0.03-0.01C53.35,25.61,53.4,25.6,53.44,25.6 M53.44,22.9c-0.25,0-0.5,0.03-0.75,0.09l-43.31,9.2
			c-1.46,0.34-2.48,1.64-2.48,3.14l0,0h49.77v-9.2C56.66,24.31,55.17,22.9,53.44,22.9L53.44,22.9z"/>
	</g>
</g>
<linearGradient id="SVGID_00000176019706644943053330000004829773740278559928_" gradientUnits="userSpaceOnUse" x1="27.31" y1="58.8393" x2="44.71" y2="58.8393" gradientTransform="matrix(1 0 0 -1 0 73.2756)">
	<stop  offset="0" style="stop-color:#FF931E"/>
	<stop  offset="1" style="stop-color:#FBB03B"/>
</linearGradient>
<path style="fill:url(#SVGID_00000176019706644943053330000004829773740278559928_);" d="M39.79,6.91c-1.32-0.01-2.56,0.5-3.49,1.43
	c-0.11,0.11-0.2,0.25-0.3,0.37c-0.91-1.09-2.25-1.81-3.78-1.82c-2.71,0.02-4.91,2.22-4.91,4.92c0,1.33,0.52,2.58,1.44,3.5
	c0.04,0.04,0.09,0.08,0.14,0.13l6.13,6.13c0.55,0.55,1.43,0.55,1.98,0l6.26-6.26l0,0c0.92-0.92,1.43-2.15,1.45-3.49
	C44.68,9.11,42.48,6.91,39.79,6.91z M41.64,13.69L41.64,13.69L36,19.32l-5.46-5.46l0,0c-0.61-0.5-0.95-1.25-0.95-2.05
	c0-1.44,1.18-2.62,2.62-2.63c1.15,0.01,2.14,0.76,2.5,1.79c0.19,0.53,0.73,0.85,1.29,0.85l0,0c0.56,0,1.1-0.34,1.28-0.87
	c0.13-0.37,0.34-0.71,0.62-1c0.5-0.5,1.16-0.77,1.87-0.76c1.44,0,2.62,1.19,2.63,2.61C42.4,12.53,42.13,13.19,41.64,13.69z"/>
</svg>
